<mxfile host="app.diagrams.net" modified="2020-08-29T15:24:05.690Z" agent="5.0 (Windows NT 10.0; Win64; x64) AppleWebKit/537.36 (KHTML, like Gecko) Chrome/84.0.4147.135 Safari/537.36" etag="YR-LWni5p9nchCV4BlFV" version="13.6.5" type="github" pages="2">
  <diagram name="Page-1" id="2a216829-ef6e-dabb-86c1-c78162f3ba2b">
    <mxGraphModel dx="782" dy="403" grid="1" gridSize="10" guides="1" tooltips="1" connect="1" arrows="1" fold="1" page="1" pageScale="1" pageWidth="850" pageHeight="1100" background="#ffffff" math="0" shadow="0">
      <root>
        <mxCell id="0" />
        <mxCell id="1" parent="0" />
        <mxCell id="AeZSkKT9F3p4wyTzrTUz-14" style="edgeStyle=orthogonalEdgeStyle;rounded=0;orthogonalLoop=1;jettySize=auto;html=1;entryX=0.5;entryY=0;entryDx=0;entryDy=0;fontSize=16;" parent="1" source="AeZSkKT9F3p4wyTzrTUz-11" target="AeZSkKT9F3p4wyTzrTUz-12" edge="1">
          <mxGeometry relative="1" as="geometry" />
        </mxCell>
        <mxCell id="AeZSkKT9F3p4wyTzrTUz-15" style="edgeStyle=orthogonalEdgeStyle;rounded=0;orthogonalLoop=1;jettySize=auto;html=1;entryX=0.5;entryY=0;entryDx=0;entryDy=0;fontSize=16;" parent="1" source="AeZSkKT9F3p4wyTzrTUz-11" target="AeZSkKT9F3p4wyTzrTUz-13" edge="1">
          <mxGeometry relative="1" as="geometry" />
        </mxCell>
        <mxCell id="AeZSkKT9F3p4wyTzrTUz-11" value="User&amp;nbsp;" style="text;html=1;align=center;verticalAlign=middle;whiteSpace=wrap;rounded=0;fontSize=16;glass=0;shadow=0;arcSize=50;fillColor=#f5f5f5;strokeColor=#666666;fontColor=#333333;" parent="1" vertex="1">
          <mxGeometry x="360" y="80" width="100" height="80" as="geometry" />
        </mxCell>
        <mxCell id="AeZSkKT9F3p4wyTzrTUz-25" style="edgeStyle=orthogonalEdgeStyle;rounded=0;orthogonalLoop=1;jettySize=auto;html=1;entryX=0.5;entryY=0;entryDx=0;entryDy=0;fontSize=16;" parent="1" source="AeZSkKT9F3p4wyTzrTUz-12" target="AeZSkKT9F3p4wyTzrTUz-20" edge="1">
          <mxGeometry relative="1" as="geometry" />
        </mxCell>
        <mxCell id="AeZSkKT9F3p4wyTzrTUz-12" value="Register&lt;br&gt;Screen" style="text;html=1;align=center;verticalAlign=middle;whiteSpace=wrap;rounded=0;fontSize=16;glass=0;shadow=0;arcSize=50;fillColor=#f5f5f5;strokeColor=#666666;fontColor=#333333;" parent="1" vertex="1">
          <mxGeometry x="240" y="200" width="100" height="80" as="geometry" />
        </mxCell>
        <mxCell id="AeZSkKT9F3p4wyTzrTUz-27" style="edgeStyle=orthogonalEdgeStyle;rounded=0;orthogonalLoop=1;jettySize=auto;html=1;entryX=0.6;entryY=0;entryDx=0;entryDy=0;entryPerimeter=0;fontSize=16;" parent="1" source="AeZSkKT9F3p4wyTzrTUz-13" target="AeZSkKT9F3p4wyTzrTUz-19" edge="1">
          <mxGeometry relative="1" as="geometry" />
        </mxCell>
        <mxCell id="AeZSkKT9F3p4wyTzrTUz-13" value="Log in&lt;br&gt;Screen" style="text;html=1;align=center;verticalAlign=middle;whiteSpace=wrap;rounded=0;fontSize=16;glass=0;shadow=0;arcSize=50;fillColor=#f5f5f5;strokeColor=#666666;fontColor=#333333;" parent="1" vertex="1">
          <mxGeometry x="480" y="200" width="100" height="80" as="geometry" />
        </mxCell>
        <mxCell id="AeZSkKT9F3p4wyTzrTUz-16" value="&lt;font style=&quot;font-size: 14px&quot;&gt;&amp;nbsp;First time User should create an account by providing a valid mobile number and a password&lt;/font&gt;" style="text;html=1;strokeColor=#b85450;fillColor=#f8cecc;align=center;verticalAlign=middle;whiteSpace=wrap;rounded=1;shadow=0;glass=0;fontSize=16;" parent="1" vertex="1">
          <mxGeometry x="40" y="100" width="240" height="80" as="geometry" />
        </mxCell>
        <mxCell id="AeZSkKT9F3p4wyTzrTUz-18" value="&lt;font style=&quot;font-size: 14px&quot;&gt;To Log in User must provide mobile number and password that given on Signup Screen&lt;/font&gt;" style="text;html=1;strokeColor=#6c8ebf;fillColor=#dae8fc;align=center;verticalAlign=middle;whiteSpace=wrap;rounded=1;shadow=0;glass=0;fontSize=16;" parent="1" vertex="1">
          <mxGeometry x="540" y="100" width="210" height="80" as="geometry" />
        </mxCell>
        <mxCell id="AeZSkKT9F3p4wyTzrTUz-19" value="Start using&lt;br&gt;the App" style="text;html=1;align=center;verticalAlign=middle;whiteSpace=wrap;rounded=0;fontSize=16;glass=0;shadow=0;arcSize=50;fillColor=#d5e8d4;strokeColor=#82b366;" parent="1" vertex="1">
          <mxGeometry x="360" y="440" width="100" height="80" as="geometry" />
        </mxCell>
        <mxCell id="AeZSkKT9F3p4wyTzrTUz-26" style="edgeStyle=orthogonalEdgeStyle;rounded=0;orthogonalLoop=1;jettySize=auto;html=1;fontSize=16;" parent="1" source="AeZSkKT9F3p4wyTzrTUz-20" target="AeZSkKT9F3p4wyTzrTUz-19" edge="1">
          <mxGeometry relative="1" as="geometry">
            <Array as="points">
              <mxPoint x="400" y="375" />
            </Array>
          </mxGeometry>
        </mxCell>
        <mxCell id="AeZSkKT9F3p4wyTzrTUz-20" value="" style="ellipse;whiteSpace=wrap;html=1;aspect=fixed;rounded=0;shadow=0;glass=0;fontSize=16;fillColor=#f5f5f5;strokeColor=#666666;fontColor=#333333;" parent="1" vertex="1">
          <mxGeometry x="245" y="330" width="90" height="90" as="geometry" />
        </mxCell>
        <mxCell id="AeZSkKT9F3p4wyTzrTUz-21" value="OTP&lt;br&gt;verify" style="text;html=1;strokeColor=none;fillColor=none;align=center;verticalAlign=middle;whiteSpace=wrap;rounded=0;shadow=0;glass=0;fontSize=16;" parent="1" vertex="1">
          <mxGeometry x="245" y="350" width="90" height="50" as="geometry" />
        </mxCell>
        <mxCell id="AeZSkKT9F3p4wyTzrTUz-22" style="edgeStyle=orthogonalEdgeStyle;rounded=0;orthogonalLoop=1;jettySize=auto;html=1;exitX=0.5;exitY=1;exitDx=0;exitDy=0;fontSize=16;" parent="1" source="AeZSkKT9F3p4wyTzrTUz-21" target="AeZSkKT9F3p4wyTzrTUz-21" edge="1">
          <mxGeometry relative="1" as="geometry" />
        </mxCell>
      </root>
    </mxGraphModel>
  </diagram>
  <diagram id="f1rz-CHq3r5_nmbhldY4" name="Page-2">
    <mxGraphModel dx="1483" dy="692" grid="1" gridSize="10" guides="1" tooltips="1" connect="1" arrows="1" fold="1" page="1" pageScale="1" pageWidth="850" pageHeight="1100" math="0" shadow="0">
      <root>
        <mxCell id="bV5WdSLc8zHXoLhrNRgb-0" />
        <mxCell id="bV5WdSLc8zHXoLhrNRgb-1" parent="bV5WdSLc8zHXoLhrNRgb-0" />
        <mxCell id="bV5WdSLc8zHXoLhrNRgb-19" style="edgeStyle=orthogonalEdgeStyle;orthogonalLoop=1;jettySize=auto;html=1;shadow=1;fontFamily=Comic Sans MS;fontSize=30;fontColor=#FFFFFF;curved=1;sketch=1;" edge="1" parent="bV5WdSLc8zHXoLhrNRgb-1" source="bV5WdSLc8zHXoLhrNRgb-2" target="bV5WdSLc8zHXoLhrNRgb-4">
          <mxGeometry relative="1" as="geometry">
            <Array as="points">
              <mxPoint x="710" y="480" />
              <mxPoint x="710" y="590" />
            </Array>
          </mxGeometry>
        </mxCell>
        <mxCell id="bV5WdSLc8zHXoLhrNRgb-25" value="&lt;font color=&quot;#000000&quot;&gt;2&lt;/font&gt;" style="edgeLabel;html=1;align=center;verticalAlign=middle;resizable=0;points=[];fontSize=30;fontFamily=Comic Sans MS;fontColor=#FFFFFF;" vertex="1" connectable="0" parent="bV5WdSLc8zHXoLhrNRgb-19">
          <mxGeometry x="-0.0154" y="-18" relative="1" as="geometry">
            <mxPoint as="offset" />
          </mxGeometry>
        </mxCell>
        <mxCell id="bV5WdSLc8zHXoLhrNRgb-23" style="edgeStyle=orthogonalEdgeStyle;curved=1;sketch=1;orthogonalLoop=1;jettySize=auto;html=1;entryX=0.042;entryY=0.292;entryDx=0;entryDy=0;entryPerimeter=0;shadow=1;fontFamily=Comic Sans MS;fontSize=30;fontColor=#FFFFFF;" edge="1" parent="bV5WdSLc8zHXoLhrNRgb-1" source="bV5WdSLc8zHXoLhrNRgb-2" target="bV5WdSLc8zHXoLhrNRgb-3">
          <mxGeometry relative="1" as="geometry" />
        </mxCell>
        <mxCell id="bV5WdSLc8zHXoLhrNRgb-24" value="&lt;font color=&quot;#000000&quot;&gt;1&lt;/font&gt;" style="edgeLabel;html=1;align=center;verticalAlign=middle;resizable=0;points=[];fontSize=30;fontFamily=Comic Sans MS;fontColor=#FFFFFF;" vertex="1" connectable="0" parent="bV5WdSLc8zHXoLhrNRgb-23">
          <mxGeometry x="-0.4583" y="-23" relative="1" as="geometry">
            <mxPoint x="-23" y="23" as="offset" />
          </mxGeometry>
        </mxCell>
        <mxCell id="bV5WdSLc8zHXoLhrNRgb-26" style="edgeStyle=orthogonalEdgeStyle;curved=1;sketch=1;orthogonalLoop=1;jettySize=auto;html=1;shadow=1;fontFamily=Comic Sans MS;fontSize=30;fontColor=#FFFFFF;" edge="1" parent="bV5WdSLc8zHXoLhrNRgb-1" source="bV5WdSLc8zHXoLhrNRgb-2" target="bV5WdSLc8zHXoLhrNRgb-12">
          <mxGeometry relative="1" as="geometry">
            <mxPoint x="750" y="340" as="targetPoint" />
            <Array as="points">
              <mxPoint x="650" y="480" />
              <mxPoint x="650" y="410" />
              <mxPoint x="750" y="410" />
              <mxPoint x="750" y="335" />
            </Array>
          </mxGeometry>
        </mxCell>
        <mxCell id="bV5WdSLc8zHXoLhrNRgb-27" value="&lt;font color=&quot;#000000&quot;&gt;3&lt;br&gt;&lt;/font&gt;" style="edgeLabel;html=1;align=center;verticalAlign=middle;resizable=0;points=[];fontSize=30;fontFamily=Comic Sans MS;fontColor=#FFFFFF;" vertex="1" connectable="0" parent="bV5WdSLc8zHXoLhrNRgb-26">
          <mxGeometry x="0.0798" y="-6" relative="1" as="geometry">
            <mxPoint x="11" y="-76" as="offset" />
          </mxGeometry>
        </mxCell>
        <mxCell id="bV5WdSLc8zHXoLhrNRgb-2" value="&lt;i&gt;&lt;b&gt;&lt;font style=&quot;font-size: 23px&quot;&gt;Explore&lt;/font&gt;&lt;/b&gt;&lt;/i&gt;" style="ellipse;whiteSpace=wrap;html=1;aspect=fixed;strokeColor=#D5E8D4;fontFamily=Comic Sans MS;fillColor=#000000;fontColor=#FFFFFF;" vertex="1" parent="bV5WdSLc8zHXoLhrNRgb-1">
          <mxGeometry x="400" y="450" width="110" height="110" as="geometry" />
        </mxCell>
        <mxCell id="bV5WdSLc8zHXoLhrNRgb-3" value="&lt;i&gt;&lt;font style=&quot;font-size: 18px&quot; color=&quot;#ffff99&quot;&gt;Run a scan to fetch all recent food pops around your neighborhood&lt;/font&gt;&lt;br&gt;&lt;/i&gt;" style="ellipse;whiteSpace=wrap;html=1;aspect=fixed;strokeColor=#666666;fontColor=#333333;strokeWidth=5;fontFamily=Comic Sans MS;fillColor=#FF6666;" vertex="1" parent="bV5WdSLc8zHXoLhrNRgb-1">
          <mxGeometry x="195" y="600" width="230" height="230" as="geometry" />
        </mxCell>
        <mxCell id="bV5WdSLc8zHXoLhrNRgb-4" value="&lt;i&gt;&lt;font style=&quot;font-size: 18px&quot; color=&quot;#ffff99&quot;&gt;Explore all the varieties of home cook foods that are available to you.&amp;nbsp;&lt;/font&gt;&lt;br&gt;&lt;/i&gt;" style="ellipse;whiteSpace=wrap;html=1;aspect=fixed;strokeColor=#666666;fontColor=#333333;strokeWidth=5;fontFamily=Comic Sans MS;fillColor=#FF6666;" vertex="1" parent="bV5WdSLc8zHXoLhrNRgb-1">
          <mxGeometry x="510" y="540" width="260" height="260" as="geometry" />
        </mxCell>
        <mxCell id="bV5WdSLc8zHXoLhrNRgb-12" value="&lt;div style=&quot;font-size: 18px&quot;&gt;&lt;i&gt;&lt;font color=&quot;#ffff99&quot; style=&quot;font-size: 18px&quot;&gt;Every food pops contains all needed info you need to know..&lt;/font&gt;&lt;/i&gt;&lt;/div&gt;&lt;div style=&quot;font-size: 18px&quot;&gt;&lt;i&gt;&lt;font color=&quot;#ffff99&quot; style=&quot;font-size: 18px&quot;&gt;food type, cooked time, price, delivery option&lt;/font&gt;&lt;/i&gt;&lt;/div&gt;" style="ellipse;whiteSpace=wrap;html=1;aspect=fixed;strokeColor=#666666;fontColor=#333333;align=center;strokeWidth=5;fontFamily=Comic Sans MS;fillColor=#FF6666;" vertex="1" parent="bV5WdSLc8zHXoLhrNRgb-1">
          <mxGeometry x="540" y="120" width="290" height="290" as="geometry" />
        </mxCell>
        <mxCell id="bV5WdSLc8zHXoLhrNRgb-28" value="&lt;div style=&quot;font-size: 18px&quot;&gt;&lt;i&gt;&lt;font color=&quot;#ffff99&quot; style=&quot;font-size: 18px&quot;&gt;Every food pops contains all needed info you need to know..&lt;/font&gt;&lt;/i&gt;&lt;/div&gt;&lt;div style=&quot;font-size: 18px&quot;&gt;&lt;i&gt;&lt;font color=&quot;#ffff99&quot; style=&quot;font-size: 18px&quot;&gt;food type, cooked time, price, delivery option&lt;/font&gt;&lt;/i&gt;&lt;/div&gt;" style="ellipse;whiteSpace=wrap;html=1;aspect=fixed;strokeColor=#666666;fontColor=#333333;align=center;strokeWidth=5;fontFamily=Comic Sans MS;fillColor=#FF6666;" vertex="1" parent="bV5WdSLc8zHXoLhrNRgb-1">
          <mxGeometry x="195" y="130" width="290" height="290" as="geometry" />
        </mxCell>
        <mxCell id="bV5WdSLc8zHXoLhrNRgb-29" value="" style="shape=stencil(lZvbctw2EES/Rq8sEnc8O85/uMpyrIpjuWTn9vcBImOXmiYPdt/kldokgMF0T8/sg3/3/fOHb48Pbv3+4+X598e/nz7++Pzgf3lw7unr58eXpx/tpwf//sG/+/T88vjby/OfXz++/vvbh/6X/ac/nv/q/8M/r7iSlxQ7yq3/vn5S/VLS/5/8+gr48vR1Bvj5yRkgrxbgGPDzBS4At2R+pVosIGYAlGXzFuA2BLj6FrDxLpUlZAuIHgGpWADuUlmqs4DVAaAuzix6XQrtUpU1NMCKgBwsIMMrtV9v252AuMorMaAm2SVYQ/t1CPecQ/t1XS2ATrqHmsYSA5IBuGULAPAjEHaAACfdL6TeOAbY0GjPpF1qOUKSgKeDa4BkAbEwoFoAbqsCwgjHM0AMFhD4HOxJB95WJ7EUl7UiIGwWEDi8S7CARLvUol9eCbdVr2haVsqtdezJDrBRqqzLJk/YIDR6Mg53PSFLIovjZM4A9pXiEil7p5EjdoCNAFE4LmCqbIAgweeIslqoyZ3OtK1hsPKe2IlQwpLMtroRjqdPEJ5GYg9LkVTp4QK1RR8oAd4lu60tGTNAxQnd6YPQaADapSwHNwUk4QcENL0ki54A9BwQUO98pZZmvG4rARrv3wvI9wGckOIE4AeN3w6w2XsCaAR137aGpd51cJ1vdJfgPvRMKlpjI45L4wbv7zQ9IS05WkCiNeTxxjtAJTWTR567Vc3kJUjRlPkJ0RB7GGLi1icEVPcHa5hIhzyE814JkCJLQ1nsaNeTwEqLE57OBGgvYHYpz6LVJwvAgwsHT4i0S0GqrDyk763KeAJQkZhZ3TtJM02uEGAbe7I/Bwq+I83nSTpUMREuNHlKKKKXUGBpiX/RN2ekaLN3WCLztC3AA8vQtATRSyiw0oEiw22N47rsBdZEJK4WQMm46yUpXtHXCCJ/VpbSKuFWzHwK6BUFvVIcOWIHQKtFdqmHIwPsK5Whb05Dw1sA3emu+TYL8AwwAuvqad1oefVPWPNVeQLGUrVCd/KEFghGwvVdouzd8lKSc2AzZ5U1ULR2u+jtFe3VKZHiZgVW3wbiOCnxG4Csx37lxbbDbVX3Z2W9pEZIu9NsF1lF1iiGvZnqLYDudEu9qu5x0UGsR8ccp4CWjNnyskL38smtu9QKZjakLGXFmalm19AoZmI9JgvIXAPZJ0wE1ibVbp75SzY0CsfSKmqmcDuhihVfsaQ5sOIrZ76W5xRA/JBtImtrQOckSQ+ljDxyBrDEntGrbBwXRSRiSySMmupGJ7EBrF4KGHwNsMmNS6SX/Chg9pUiHVz7/6StU2hb/bjBOwD1HzpAcqunRfuRtnb8UHmXrHSo45afAVy0AIwl8fm6wKJFi6psAGondIElxF4plpI1mSfE3puQIn/IE+i8L0oAWyIqTniXurFy1zkoP1xT2xnHZXlCJVJUM2fldJ8ke6/jSp25DpaBNqzjWp7bpJGKjaMiVgs7ug2g/ThsQirAY/HaAaYsC2x5XShwl1sdvVJeqigBaol0GhclQGmmuz9CKHjS8YDYHR1cFM1XZhLOCt3KRogXk7lyx8+JEVJnBYf1vSeA9UCcBK6yrCdQuf9QBFCwQundMtF8ZG6WJO21i5dyY7q/BsspocgFKmwiqDeD4sQftHXQalFi38YdPAPYV+LMVy5JZZ+MGVDeBt+EH9oueZEOG5s5RvO16IqTkxZPABctsXQNx1NiTxYQuBwwHfAO4ILDWi2Z6zgnrkPGaNW8NDFzrr3ivYNFWiPaTlPbhknTpYrWQH5QBloxkXVSFOmArkMdHfW960C5tQ6hsHcdaNH1oH4g6bCtqzRRJr2pyy7uEhOqxCo9cx7oawCrHcJQprcexMR2UA03ERtJ2paJL0SUiafMNOrHHMHeReA7ugmAKvDrrNyOd9E/rVLjV2wE9VQqT0BbOo+GxgDs4vHURpBHYBWkLYvKExvagShMi0E6QYWHecKon3exge6MugKTcSEt8gOX4ArwY0j2dqMicpHvxaggDjqY/lmnPQ4p/XBbtQSfqA3RlZ2KuUkYtWbnNqQZDOvil9W38RI7gFLfdtBFwba8E7Vxmds99XRlWydWuQ7dkkw8SK6TEjzKEAlPS/fsrmY8M4qdOplU1FloNKCtVovMInD/+LAEp+5uf4KU4NTdPVhDxonvvkvKigRIViZOcut1iftakYPPSoEJjXqZcGUzvotpKZDJW+8j5+GeJ2jW6L7DZHxOKWtCu+KdkFHRG/8yQ4tDt8qiYWYC6ywCerpH5Su2XfxoRe3zEhGKOyhfcQDDDUbbl00QGu2VrC+dedrB25HY3qhncWK6KJ0m2Sq3kwIJB5J0nLR9QlXQAe2mWTfLFvlpduMsKfITuoObZNGU7p0llD6hzb1X25bP3KyNYsZPJgWUFFe8op0U9ZsobNHatvzkax9F5h75q1y9h6gd6vus8sjjc0Vmynm2/6AYTVyzF5l75HLgoHrNHHzpYEBvMiipRvaEdpVQUMLp4HDhGt/JLEIxtlr74fqlwtfvI15+d/ZtQ3E/uPyc/vmbd/j09OWLeY/2g/0iZPvo9UuU/v1/);fillColor=none;strokeColor=#FFCE9F;strokeWidth=5;fontFamily=Comic Sans MS;fontSize=30;fontColor=#FF6666;align=center;" vertex="1" parent="bV5WdSLc8zHXoLhrNRgb-1">
          <mxGeometry x="98.34375" y="432.0000305175781" width="411.87501525878906" height="494.37501525878906" as="geometry" />
        </mxCell>
      </root>
    </mxGraphModel>
  </diagram>
</mxfile>
